# xmcd
# Track frame offsets:
# 150
# 12930
# 27201
# 39988
# 52121
# 64376
# 76791
# 89501
# 102754
# 114922
# 127081
# 137548
# 150857
# 164750
# 178101
# 188248
# 200424
# 212995
# 224203
# 235730
# 248807
# 259620
# 270846
# 284460
# 297087
# 310239
# 321222
# 333084
# 346985
#
# Disc length: 4772 seconds
# Revision: 0
# Processed by: cddbd v1.5.2PL0 Copyright (c) Steve Scherf et al.
# Submitted via: VisiTrax 2.11.3.279 - For more info visit www.synapsa.com
#
DISCID=a812a21d
DTITLE=Various (1920's-1960's) Gospel and Jazz and Blues and Soul and R&B  Artist
DTITLE=s - From Sacred To Secular - A Soul Awakening:- Soul Chronology 2: "Th
DTITLE=is Old Soul Of Mine": CD2 of 8: *ReMastered Tracks
DYEAR=1950
DGENRE=Soul
TTITLE0=Professor J. Earle Hines - This Old Soul Of Mine*
TTITLE1=Davis Sisters The - Too Close To Heaven*
TTITLE2=Sonny Thompson with Lula Reed - I'll Drown In My Tears*
TTITLE3=Big Maybelle - Way Back Home*
TTITLE4=Soul Stirrers The - Just Another Day*
TTITLE5=Dorothy Love Coates - You Can't Hurry God, He's Right On Time*
TTITLE6=Edna Gallmon Cooke - Build Me A Cabin*
TTITLE7=Spirit Of Memphis The - Here Am I Do Lord Send Me*
TTITLE8="5" Royales The - Baby, Don't Do It*
TTITLE9=Colemanaires The with Ann Cole - Be Ready When He Comes*
TTITLE10=Dominoes The - Have Mercy Baby*
TTITLE11=Caravans The - Blessed And Brought Up By The Lord*
TTITLE12=Mahalia Jackson - Walking To Jerusalem*
TTITLE13=Drifters The - Money Honey*
TTITLE14=Marie Knight - Jesus Walk With Me*
TTITLE15=Dorothy Love Coates - No Hiding Place*
TTITLE16=Billy Ward and The Dominoes - Going To Move To The Outskirts Of Town*
TTITLE17=Pilgrim Travelers The - I've Got A New Home*
TTITLE18=Staple Singers The - Since He Lightened My Heavy Load*
TTITLE19=Ray Charles - Don't You Know*
TTITLE20=Meditation Singers The - I'm Determined*
TTITLE21=Big Maybelle - Ocean Of Tears*
TTITLE22=Guitar Slim - The Things That I Used To Do*
TTITLE23=Edna Gallmon Cooke - Somebody Touched Me*
TTITLE24=Midnighters The - Don't Say Your Last Goodbye*
TTITLE25=Ruth Brown and The Drifters - Somebody Touched Me*
TTITLE26=Five Keys The - Too Late Baby*
TTITLE27=Alex Bradford - Too Close To Heaven*
TTITLE28=Soul Stirrers The - Any Day Now*
EXTD=Eight CD's in a book style holder. Discs and Tracks in chronological o
EXTD=rder with a 35 page central section with alternate pages of Track Info
EXTD=rmation and Performer Photo'sCompiled, ReMastered and Presented: History O
EXTD=f Soul Records: 2015
EXTT0=
EXTT1=
EXTT2=
EXTT3=
EXTT4=
EXTT5=
EXTT6=
EXTT7=
EXTT8=
EXTT9=
EXTT10=
EXTT11=
EXTT12=
EXTT13=
EXTT14=
EXTT15=
EXTT16=
EXTT17=
EXTT18=
EXTT19=
EXTT20=
EXTT21=
EXTT22=
EXTT23=
EXTT24=
EXTT25=
EXTT26=
EXTT27=
EXTT28=
PLAYORDER=
